<svg xmlns="http://www.w3.org/2000/svg" viewBox="0 0 340 270" width="340" height="270">
<g id="tyč"><rect x="10" y="14" width="320" height="10" rx="5" fill="#B9AECB" stroke="#2F2E3F" stroke-width="2.5"/><circle cx="10" cy="19" r="8" fill="#8F84A8" stroke="#2F2E3F" stroke-width="2.5"/><circle cx="330" cy="19" r="8" fill="#8F84A8" stroke="#2F2E3F" stroke-width="2.5"/></g>
<g id="levý díl">
<path d="M 30 26 C 20 100 26 180 18 258 Q 34 250 50 260 Q 66 250 84 258 C 76 180 80 100 86 26 Z" fill="#F3D3DE" stroke="#2F2E3F" stroke-width="3" stroke-linejoin="round"/>
<path d="M 46 30 C 42 110 44 190 40 250" stroke="#E7B9C8" stroke-width="3" fill="none" stroke-linecap="round"/>
<path d="M 64 30 C 62 110 64 190 62 250" stroke="#E7B9C8" stroke-width="3" fill="none" stroke-linecap="round"/>
<path d="M 34 34 C 38 60 40 60 44 34" stroke="#FFFFFF" stroke-width="3" fill="none" opacity="0.6" stroke-linecap="round"/>
<circle cx="36" cy="19" r="5" fill="#8F84A8" stroke="#2F2E3F" stroke-width="2"/><circle cx="50" cy="19" r="5" fill="#8F84A8" stroke="#2F2E3F" stroke-width="2"/><circle cx="64" cy="19" r="5" fill="#8F84A8" stroke="#2F2E3F" stroke-width="2"/><circle cx="78" cy="19" r="5" fill="#8F84A8" stroke="#2F2E3F" stroke-width="2"/>
</g>
<g id="pravý díl">
<path d="M 310 26 C 320 100 314 180 322 258 Q 306 250 290 260 Q 274 250 256 258 C 264 180 260 100 254 26 Z" fill="#F3D3DE" stroke="#2F2E3F" stroke-width="3" stroke-linejoin="round"/>
<path d="M 294 30 C 298 110 296 190 300 250" stroke="#E7B9C8" stroke-width="3" fill="none" stroke-linecap="round"/>
<path d="M 276 30 C 278 110 276 190 278 250" stroke="#E7B9C8" stroke-width="3" fill="none" stroke-linecap="round"/>
<path d="M 306 34 C 302 60 300 60 296 34" stroke="#FFFFFF" stroke-width="3" fill="none" opacity="0.6" stroke-linecap="round"/>
<circle cx="304" cy="19" r="5" fill="#8F84A8" stroke="#2F2E3F" stroke-width="2"/><circle cx="290" cy="19" r="5" fill="#8F84A8" stroke="#2F2E3F" stroke-width="2"/><circle cx="276" cy="19" r="5" fill="#8F84A8" stroke="#2F2E3F" stroke-width="2"/><circle cx="262" cy="19" r="5" fill="#8F84A8" stroke="#2F2E3F" stroke-width="2"/>
</g>
<rect id="@úkryt" x="20" y="130" width="64" height="130" fill="#3DA9FF" opacity="0.18"/>
<circle id="@čep levý" cx="57" cy="19" r="6" fill="#FF3D9A" opacity="0.5"/>
<circle id="@čep pravý" cx="283" cy="19" r="6" fill="#FF3D9A" opacity="0.5"/>
</svg>
