<svg xmlns="http://www.w3.org/2000/svg" viewBox="0 0 300 200" width="300" height="200">
<g id="stín"><ellipse cx="150" cy="188" rx="130" ry="12" fill="#2F2E3F" stroke="none" opacity="0.14"/></g>
<g id="klopa zadní"><path d="M 60 74 L 84 22 L 216 22 L 240 74 Z" fill="#D8BF9A" stroke="#2F2E3F" stroke-width="3" stroke-linejoin="round" stroke-linecap="round"/><rect x="70" y="60" width="160" height="12" fill="#A88C66" stroke="none" opacity="0.3"/></g>
<g id="vnitřek"><rect x="60" y="74" width="180" height="96" fill="#6F5A41" stroke="#2F2E3F" stroke-width="3" stroke-linejoin="round" stroke-linecap="round"/><path d="M 60 74 L 80 84 L 80 170 L 60 170 Z" fill="#5A4834" stroke="none"/><path d="M 240 74 L 220 84 L 220 170 L 240 170 Z" fill="#5A4834" stroke="none"/><rect x="80" y="84" width="140" height="86" fill="#8A7052" stroke="none"/></g>
<g id="před: klopa levá"><path d="M 60 100 L 6 122 L 10 172 L 60 150 Z" fill="#D8BF9A" stroke="#2F2E3F" stroke-width="3" stroke-linejoin="round" stroke-linecap="round"/></g>
<g id="před: klopa pravá"><path d="M 240 100 L 294 122 L 290 172 L 240 150 Z" fill="#A88C66" stroke="#2F2E3F" stroke-width="3" stroke-linejoin="round" stroke-linecap="round"/></g>
<g id="před: přední stěna"><rect x="60" y="100" width="180" height="70" fill="#C9AD84" stroke="#2F2E3F" stroke-width="3" stroke-linejoin="round" stroke-linecap="round"/><rect x="60" y="100" width="180" height="6" fill="#A88C66" stroke="none"/><path d="M 60 136 L 240 136" stroke="#8A7052" stroke-width="2" stroke-linejoin="round" stroke-linecap="round" opacity="0.5"/><rect x="140" y="100" width="20" height="70" fill="#DCC8A2" stroke="#8A7052" stroke-width="1.5" stroke-linejoin="round" stroke-linecap="round" opacity="0.9"/><path d="M 92 116 l -8 10 h 5 v 14 h 6 v -14 h 5 Z" fill="#8A7052" stroke="none" opacity="0.7"/><path d="M 112 116 l -8 10 h 5 v 14 h 6 v -14 h 5 Z" fill="#8A7052" stroke="none" opacity="0.7"/><rect x="190" y="118" width="30" height="18" rx="2" fill="#FFFFFF" stroke="#8A7052" stroke-width="1.5" stroke-linejoin="round" stroke-linecap="round" opacity="0.8"/><path d="M 196 124 L 214 124" stroke="#8A7052" stroke-width="1.5" stroke-linejoin="round" stroke-linecap="round"/><path d="M 196 130 L 210 130" stroke="#8A7052" stroke-width="1.5" stroke-linejoin="round" stroke-linecap="round"/></g>
<g id="stav: zavřená" data-state="hidden"><path d="M 60 74 L 84 22 L 216 22 L 240 74 Z" fill="#C9AD84" stroke="#2F2E3F" stroke-width="3" stroke-linejoin="round" stroke-linecap="round"/><path d="M 150 22 L 150 74" stroke="#8A7052" stroke-width="2" stroke-linejoin="round" stroke-linecap="round"/><rect x="60" y="74" width="180" height="26" fill="#C9AD84" stroke="#2F2E3F" stroke-width="3" stroke-linejoin="round" stroke-linecap="round"/><path d="M 60 100 L 6 122 L 10 172 L 60 150 Z" fill="#C9AD84" stroke="none" opacity="0"/></g>
<rect id="@pata" x="40" y="140" width="220" height="44" fill="#FFB13D" opacity="0.2"/>
<rect id="@plošina" x="70" y="154" width="160" height="16" fill="#3DFF9A" opacity="0.2"/>
<rect id="@úkryt v" x="70" y="84" width="160" height="86" fill="#3DA9FF" opacity="0.2"/>
<rect id="@dotyk" x="60" y="100" width="180" height="70" fill="#FF3D9A" opacity="0.2"/>
</svg>
