<svg xmlns="http://www.w3.org/2000/svg" viewBox="0 0 320 170" width="320" height="170">
<g id="vnitřek"><rect x="60" y="20" width="200" height="130" fill="#8A7052" stroke="#2F2E3F" stroke-width="3"/><path d="M 60 20 L 82 32 L 82 150 L 60 150 Z" fill="#6F5A41"/><path d="M 260 20 L 238 32 L 238 150 L 260 150 Z" fill="#6F5A41"/><rect x="60" y="20" width="200" height="6" fill="#A88C66"/></g>
<g id="před: klopa levá"><path d="M 60 78 L 8 100 L 12 150 L 60 128 Z" fill="#D8BF9A" stroke="#2F2E3F" stroke-width="3" stroke-linejoin="round"/></g>
<g id="před: klopa pravá"><path d="M 260 78 L 312 100 L 308 150 L 260 128 Z" fill="#A88C66" stroke="#2F2E3F" stroke-width="3" stroke-linejoin="round"/></g>
<g id="před: přední stěna"><rect x="60" y="78" width="200" height="72" fill="#C9AD84" stroke="#2F2E3F" stroke-width="3"/><rect x="60" y="78" width="200" height="6" fill="#A88C66"/><path d="M 60 114 L 260 114" stroke="#7A6248" stroke-width="2" opacity="0.5"/><rect x="150" y="78" width="20" height="72" fill="#DCC8A2" opacity="0.9" stroke="#7A6248" stroke-width="1.5"/><path d="M 88 96 L 80 106 L 85 106 L 85 120 L 91 120 L 91 106 L 96 106 Z" fill="#7A6248" opacity="0.7"/><path d="M 108 96 L 100 106 L 105 106 L 105 120 L 111 120 L 111 106 L 116 106 Z" fill="#7A6248" opacity="0.7"/><rect x="196" y="96" width="44" height="26" rx="3" fill="#ECE4D2" stroke="#7A6248" stroke-width="1.5"/><path d="M 202 103 L 232 103 M 202 110 L 232 110 M 202 117 L 220 117" stroke="#7A6248" stroke-width="2" opacity="0.6"/></g>
<rect id="@úkryt" x="70" y="30" width="180" height="110" fill="#3DA9FF" opacity="0.18"/>
<rect id="@plošina" x="60" y="70" width="200" height="14" fill="#3DFF9A" opacity="0.25"/>
</svg>
