<svg xmlns="http://www.w3.org/2000/svg" viewBox="0 0 156 345" width="156" height="345">
<g id="rám"><rect x="0" y="0" width="156" height="345" rx="5" fill="#A88C66" stroke="#2F2E3F" stroke-width="3" stroke-linejoin="round" stroke-linecap="round"/><rect x="10" y="10" width="136" height="335" rx="3" fill="#3B3A4A" stroke="#2F2E3F" stroke-width="2" stroke-linejoin="round" stroke-linecap="round"/></g>
<g id="křídlo"><rect x="12" y="12" width="132" height="331" rx="3" fill="#C9AD84" stroke="#2F2E3F" stroke-width="2.5" stroke-linejoin="round" stroke-linecap="round"/><rect x="30" y="32" width="96" height="118" rx="4" fill="#D8BF9A" stroke="#2F2E3F" stroke-width="2" stroke-linejoin="round" stroke-linecap="round"/><rect x="30" y="172" width="96" height="150" rx="4" fill="#D8BF9A" stroke="#2F2E3F" stroke-width="2" stroke-linejoin="round" stroke-linecap="round"/><circle cx="126" cy="184" r="6.5" fill="#F2CF7A" stroke="#2F2E3F" stroke-width="2" stroke-linejoin="round" stroke-linecap="round"/><rect x="64" y="157" width="28" height="8" rx="2" fill="#F2CF7A" stroke="#2F2E3F" stroke-width="1.5" stroke-linejoin="round" stroke-linecap="round"/><path d="M 38 40 L 38 96" fill="none" stroke="#FFFFFF" stroke-width="3" stroke-linejoin="round" stroke-linecap="round" opacity="0.5"/></g>
<g id="cedulka"><path d="M 60 60 L 78 46 L 96 60" fill="none" stroke="#2F2E3F" stroke-width="2" stroke-linejoin="round" stroke-linecap="round"/><circle cx="78" cy="46" r="2.5" fill="#9A94A8" stroke="#2F2E3F" stroke-width="1.5" stroke-linejoin="round" stroke-linecap="round"/><rect x="48" y="60" width="60" height="34" rx="5" fill="#FBF9F5" stroke="#2F2E3F" stroke-width="2.5" stroke-linejoin="round" stroke-linecap="round"/><path d="M 66 86 L 86 70" stroke="#8A7052" stroke-width="5" stroke-linejoin="round" stroke-linecap="round"/><path d="M 80 62 L 94 71 L 89 79 L 75 70 Z" fill="#9A94A8" stroke="#2F2E3F" stroke-width="1.8" stroke-linejoin="round" stroke-linecap="round"/></g>
<g id="stav: otevřené" data-state="hidden"><rect x="12" y="12" width="132" height="331" rx="3" fill="#CFE0F0" stroke="#2F2E3F" stroke-width="2.5" stroke-linejoin="round" stroke-linecap="round"/><rect x="12" y="262" width="132" height="81" fill="#C5E3B8" stroke="none"/><path d="M 144 12 L 112 36 L 112 322 L 144 343 Z" fill="#C9AD84" stroke="#2F2E3F" stroke-width="2.5" stroke-linejoin="round" stroke-linecap="round"/></g>
<g id="stav: světlo zvenku" data-state="hidden"><rect x="12" y="12" width="132" height="331" fill="#FBEFD6" stroke="none" opacity="0.5"/></g>
<rect id="@dotyk škrábání" x="12" y="180" width="132" height="163" fill="#FF3D9A" opacity="0.2"/>
<circle id="@čep cedulka" cx="78" cy="77" r="6" fill="#FF3D9A" opacity="0.5"/>
</svg>
