<svg xmlns="http://www.w3.org/2000/svg" viewBox="0 0 360 110" width="360" height="110">
<g id="deka"><path d="M 12 30 Q 180 6 348 30 L 352 84 Q 180 100 8 84 Z" fill="#C9DAF0" stroke="#2F2E3F" stroke-width="3" stroke-linejoin="round" stroke-linecap="round"/><path d="M 40 36 Q 50 60 40 80" fill="none" stroke="#B7CBE6" stroke-width="3" stroke-linejoin="round" stroke-linecap="round" opacity="0.8"/><path d="M 100 36 Q 110 60 100 80" fill="none" stroke="#B7CBE6" stroke-width="3" stroke-linejoin="round" stroke-linecap="round" opacity="0.8"/><path d="M 160 36 Q 170 60 160 80" fill="none" stroke="#B7CBE6" stroke-width="3" stroke-linejoin="round" stroke-linecap="round" opacity="0.8"/><path d="M 220 36 Q 230 60 220 80" fill="none" stroke="#B7CBE6" stroke-width="3" stroke-linejoin="round" stroke-linecap="round" opacity="0.8"/><path d="M 280 36 Q 290 60 280 80" fill="none" stroke="#B7CBE6" stroke-width="3" stroke-linejoin="round" stroke-linecap="round" opacity="0.8"/><path d="M 340 36 Q 350 60 340 80" fill="none" stroke="#B7CBE6" stroke-width="3" stroke-linejoin="round" stroke-linecap="round" opacity="0.8"/><path d="M 30 42 Q 100 30 170 42" fill="none" stroke="#FFFFFF" stroke-width="3" stroke-linejoin="round" stroke-linecap="round" opacity="0.5"/></g>
<g id="stav: boule" data-state="hidden"><ellipse cx="120" cy="56" rx="44" ry="18" fill="#C9DAF0" stroke="#2F2E3F" stroke-width="2.5" stroke-linejoin="round" stroke-linecap="round"/><path d="M 84 60 Q 120 30 156 60" fill="none" stroke="#B7CBE6" stroke-width="3" stroke-linejoin="round" stroke-linecap="round"/></g>
<g id="stav: hnětená" data-state="hidden"><circle cx="230" cy="48" r="3" fill="#9FC0E6" stroke="none" opacity="0.6"/><circle cx="246" cy="48" r="3" fill="#9FC0E6" stroke="none" opacity="0.6"/><circle cx="262" cy="48" r="3" fill="#9FC0E6" stroke="none" opacity="0.6"/><circle cx="230" cy="62" r="3" fill="#9FC0E6" stroke="none" opacity="0.6"/><circle cx="246" cy="62" r="3" fill="#9FC0E6" stroke="none" opacity="0.6"/><circle cx="262" cy="62" r="3" fill="#9FC0E6" stroke="none" opacity="0.6"/></g>
<rect id="@pata" x="8" y="40" width="344" height="50" fill="#FFB13D" opacity="0.2"/>
<rect id="@plošina" x="20" y="36" width="320" height="44" fill="#3DFF9A" opacity="0.2"/>
<rect id="@úkryt pod dekou" x="70" y="40" width="100" height="44" fill="#3DA9FF" opacity="0.2"/>
</svg>
