<svg xmlns="http://www.w3.org/2000/svg" viewBox="0 0 140 120" width="140" height="120">
<g id="stín"><ellipse cx="70" cy="112" rx="60" ry="8" fill="#2F2E3F" stroke="none" opacity="0.16"/></g>
<g id="keř"><ellipse cx="70" cy="70" rx="64" ry="44" fill="#9FCB8F" stroke="#2F2E3F" stroke-width="3" stroke-linejoin="round" stroke-linecap="round"/><ellipse cx="44" cy="56" rx="30" ry="24" fill="#C5E3B8" stroke="none"/><ellipse cx="96" cy="60" rx="26" ry="20" fill="#C5E3B8" stroke="none" opacity="0.8"/><ellipse cx="70" cy="96" rx="44" ry="14" fill="#7FB06F" stroke="none" opacity="0.6"/></g>
<g id="stav: květy" data-state="hidden"><circle cx="30" cy="50" r="5" fill="#F3D3DE" stroke="#2F2E3F" stroke-width="1.5" stroke-linejoin="round" stroke-linecap="round"/><circle cx="50" cy="64" r="5" fill="#F3D3DE" stroke="#2F2E3F" stroke-width="1.5" stroke-linejoin="round" stroke-linecap="round"/><circle cx="70" cy="78" r="5" fill="#F3D3DE" stroke="#2F2E3F" stroke-width="1.5" stroke-linejoin="round" stroke-linecap="round"/><circle cx="90" cy="50" r="5" fill="#F3D3DE" stroke="#2F2E3F" stroke-width="1.5" stroke-linejoin="round" stroke-linecap="round"/><circle cx="110" cy="64" r="5" fill="#F3D3DE" stroke="#2F2E3F" stroke-width="1.5" stroke-linejoin="round" stroke-linecap="round"/></g>
<g id="stav: sníh" data-state="hidden"><path d="M 10 62 Q 70 10 130 62 Q 100 70 70 66 Q 40 70 10 62 Z" fill="#FFFFFF" stroke="#2F2E3F" stroke-width="2" stroke-linejoin="round" stroke-linecap="round"/></g>
<g id="stav: ptáci" data-state="hidden"><circle cx="100" cy="36" r="4" fill="#9FC0E6" stroke="#2F2E3F" stroke-width="1.5" stroke-linejoin="round" stroke-linecap="round"/><ellipse cx="96" cy="40" rx="7" ry="4" fill="#9FC0E6" stroke="#2F2E3F" stroke-width="1.5" stroke-linejoin="round" stroke-linecap="round"/></g>
<g id="stav: holý" data-state="hidden"><ellipse cx="70" cy="70" rx="64" ry="44" fill="#C5E3B8" stroke="none" opacity="0"/><path d="M 70 110 L 60 60 M 70 110 L 90 56 M 60 60 L 40 40 M 90 56 L 110 42 M 70 110 L 44 74" fill="none" stroke="#8A7052" stroke-width="5" stroke-linejoin="round" stroke-linecap="round"/></g>
<rect id="@pata" x="10" y="96" width="120" height="20" fill="#FFB13D" opacity="0.2"/>
<rect id="@úkryt v" x="20" y="40" width="100" height="60" fill="#3DA9FF" opacity="0.2"/>
<rect id="@úkryt za" x="40" y="96" width="60" height="20" fill="#3DA9FF" opacity="0.2"/>
<rect id="@dotyk" x="6" y="26" width="128" height="88" fill="#FF3D9A" opacity="0.2"/>
</svg>
