<svg xmlns="http://www.w3.org/2000/svg" viewBox="0 0 1000 50" width="1000" height="50">
<g id="hřeben"><rect x="0" y="14" width="1000" height="20" rx="10" fill="#E07E6D" stroke="#2F2E3F" stroke-width="3" stroke-linejoin="round" stroke-linecap="round"/><path d="M 20 14 q 30 -12 60 0" fill="none" stroke="#F7C9C0" stroke-width="2.5" stroke-linejoin="round" stroke-linecap="round"/><path d="M 80 14 q 30 -12 60 0" fill="none" stroke="#F7C9C0" stroke-width="2.5" stroke-linejoin="round" stroke-linecap="round"/><path d="M 140 14 q 30 -12 60 0" fill="none" stroke="#F7C9C0" stroke-width="2.5" stroke-linejoin="round" stroke-linecap="round"/><path d="M 200 14 q 30 -12 60 0" fill="none" stroke="#F7C9C0" stroke-width="2.5" stroke-linejoin="round" stroke-linecap="round"/><path d="M 260 14 q 30 -12 60 0" fill="none" stroke="#F7C9C0" stroke-width="2.5" stroke-linejoin="round" stroke-linecap="round"/><path d="M 320 14 q 30 -12 60 0" fill="none" stroke="#F7C9C0" stroke-width="2.5" stroke-linejoin="round" stroke-linecap="round"/><path d="M 380 14 q 30 -12 60 0" fill="none" stroke="#F7C9C0" stroke-width="2.5" stroke-linejoin="round" stroke-linecap="round"/><path d="M 440 14 q 30 -12 60 0" fill="none" stroke="#F7C9C0" stroke-width="2.5" stroke-linejoin="round" stroke-linecap="round"/><path d="M 500 14 q 30 -12 60 0" fill="none" stroke="#F7C9C0" stroke-width="2.5" stroke-linejoin="round" stroke-linecap="round"/><path d="M 560 14 q 30 -12 60 0" fill="none" stroke="#F7C9C0" stroke-width="2.5" stroke-linejoin="round" stroke-linecap="round"/><path d="M 620 14 q 30 -12 60 0" fill="none" stroke="#F7C9C0" stroke-width="2.5" stroke-linejoin="round" stroke-linecap="round"/><path d="M 680 14 q 30 -12 60 0" fill="none" stroke="#F7C9C0" stroke-width="2.5" stroke-linejoin="round" stroke-linecap="round"/><path d="M 740 14 q 30 -12 60 0" fill="none" stroke="#F7C9C0" stroke-width="2.5" stroke-linejoin="round" stroke-linecap="round"/><path d="M 800 14 q 30 -12 60 0" fill="none" stroke="#F7C9C0" stroke-width="2.5" stroke-linejoin="round" stroke-linecap="round"/><path d="M 860 14 q 30 -12 60 0" fill="none" stroke="#F7C9C0" stroke-width="2.5" stroke-linejoin="round" stroke-linecap="round"/><path d="M 920 14 q 30 -12 60 0" fill="none" stroke="#F7C9C0" stroke-width="2.5" stroke-linejoin="round" stroke-linecap="round"/></g>
<g id="stav: sníh" data-state="hidden"><rect x="0" y="8" width="1000" height="10" rx="5" fill="#FFFFFF" stroke="#2F2E3F" stroke-width="2" stroke-linejoin="round" stroke-linecap="round"/></g>
<rect id="@pata" x="0" y="14" width="1000" height="20" fill="#FFB13D" opacity="0.2"/>
</svg>
