<svg xmlns="http://www.w3.org/2000/svg" viewBox="0 0 1100 700" width="1100" height="700">
<g id="obloha"><rect x="0" y="0" width="1100" height="470" fill="#CFE0F0" stroke="none"/><ellipse cx="300" cy="120" rx="90" ry="26" fill="#FFFFFF" stroke="none" opacity="0.8"/><ellipse cx="760" cy="80" rx="70" ry="20" fill="#FFFFFF" stroke="none" opacity="0.7"/></g>
<g id="zeď domu"><rect x="1000" y="0" width="100" height="470" fill="#E9E3F1" stroke="none"/><rect x="1000" y="0" width="6" height="470" fill="#C9B8E8" stroke="none"/><rect x="1020" y="120" width="72" height="350" rx="4" fill="#F0E6DC" stroke="#2F2E3F" stroke-width="3" stroke-linejoin="round" stroke-linecap="round"/><rect x="1028" y="128" width="56" height="342" rx="3" fill="#D8C7C0" stroke="#2F2E3F" stroke-width="2" stroke-linejoin="round" stroke-linecap="round"/></g>
<g id="země"><rect x="0" y="470" width="1100" height="230" fill="#C5E3B8" stroke="none"/><rect x="0" y="640" width="1100" height="60" fill="#9FCB8F" stroke="none" opacity="0.5"/></g>
<rect id="@slot strom" x="120" y="470" width="300" height="90" fill="#FF8C3D" opacity="0.2"/>
<rect id="@slot lavička" x="500" y="520" width="240" height="50" fill="#FF8C3D" opacity="0.2"/>
<rect id="@slot pítko" x="800" y="500" width="100" height="40" fill="#FF8C3D" opacity="0.2"/>
<rect id="@slot záhon" x="880" y="600" width="200" height="50" fill="#FF8C3D" opacity="0.2"/>
<rect id="@slot plot" x="0" y="360" width="1000" height="110" fill="#FF8C3D" opacity="0.2"/>
<rect id="@slot tráva" x="0" y="470" width="1100" height="190" fill="#FF8C3D" opacity="0.2"/>
<rect id="@slot cestička" x="440" y="600" width="320" height="50" fill="#FF8C3D" opacity="0.2"/>
<rect id="@slot místo pro dárky" x="40" y="600" width="120" height="40" fill="#FF8C3D" opacity="0.2"/>
<rect id="@slot keř" x="960" y="480" width="130" height="60" fill="#FF8C3D" opacity="0.2"/>
<rect id="@slot ozdoba" x="200" y="600" width="200" height="50" fill="#FF8C3D" opacity="0.2"/>
<rect id="@slot ozdoba +" x="780" y="606" width="90" height="44" fill="#FF8C3D" opacity="0.2"/>
</svg>
