<svg xmlns="http://www.w3.org/2000/svg" viewBox="0 0 600 700" width="600" height="700">
<g id="stěna"><rect x="0" y="0" width="600" height="470" fill="#F6F4F9" stroke="none"/><rect x="0" y="0" width="600" height="36" fill="#F0E6DC" stroke="none" opacity="0.6"/></g>
<g id="podlaha"><rect x="0" y="470" width="600" height="230" fill="#D8BF9A" stroke="none"/><path d="M 0 508 L 600 508" stroke="#C9AD84" stroke-width="2" stroke-linejoin="round" stroke-linecap="round"/><path d="M 0 549.8 L 600 549.8" stroke="#C9AD84" stroke-width="2" stroke-linejoin="round" stroke-linecap="round"/><path d="M 0 595.4 L 600 595.4" stroke="#C9AD84" stroke-width="2" stroke-linejoin="round" stroke-linecap="round"/><path d="M 0 641 L 600 641" stroke="#C9AD84" stroke-width="2" stroke-linejoin="round" stroke-linecap="round"/><path d="M 40 470 L -25 700" stroke="#C9AD84" stroke-width="1.5" stroke-linejoin="round" stroke-linecap="round"/><path d="M 170 470 L 137.5 700" stroke="#C9AD84" stroke-width="1.5" stroke-linejoin="round" stroke-linecap="round"/><path d="M 300 470 L 300 700" stroke="#C9AD84" stroke-width="1.5" stroke-linejoin="round" stroke-linecap="round"/><path d="M 430 470 L 462.5 700" stroke="#C9AD84" stroke-width="1.5" stroke-linejoin="round" stroke-linecap="round"/><path d="M 560 470 L 625 700" stroke="#C9AD84" stroke-width="1.5" stroke-linejoin="round" stroke-linecap="round"/><path d="M 690 470 L 787.5 700" stroke="#C9AD84" stroke-width="1.5" stroke-linejoin="round" stroke-linecap="round"/></g>
<g id="lišta"><rect x="0" y="440" width="600" height="26" fill="#F6F4F9" stroke="none"/><rect x="0" y="462" width="600" height="4" fill="#D9CDEB" stroke="none"/><rect x="0" y="466" width="600" height="6" fill="#DCD4E8" stroke="none" opacity="0.7"/></g>
<g id="průchod levý"><rect x="0" y="150" width="44" height="510" fill="#3B3A4A" stroke="none" opacity="0.05"/><rect x="0" y="0" width="14" height="150" fill="#F0E6DC" stroke="#2F2E3F" stroke-width="2.5" stroke-linejoin="round" stroke-linecap="round"/><rect x="0" y="140" width="14" height="10" fill="#3B3A4A" stroke="none" opacity="0.12"/></g>
<g id="průchod pravý"><rect x="556" y="150" width="44" height="510" fill="#3B3A4A" stroke="none" opacity="0.05"/><rect x="586" y="0" width="14" height="150" fill="#F0E6DC" stroke="#2F2E3F" stroke-width="2.5" stroke-linejoin="round" stroke-linecap="round"/><rect x="586" y="140" width="14" height="10" fill="#3B3A4A" stroke="none" opacity="0.12"/></g>
<rect id="@slot schody" x="187" y="100" width="440" height="420" fill="#FF8C3D" opacity="0.2"/>
<rect id="@slot botník" x="100" y="575" width="200" height="40" fill="#FF8C3D" opacity="0.2"/>
<rect id="@slot věšák" x="14" y="120" width="140" height="260" fill="#FF8C3D" opacity="0.2"/>
<rect id="@slot dveře" x="156" y="200" width="160" height="270" fill="#FF8C3D" opacity="0.2"/>
<rect id="@slot zrcadlo" x="328" y="120" width="100" height="160" fill="#FF8C3D" opacity="0.2"/>
<rect id="@slot lampička" x="206" y="100" width="60" height="60" fill="#FF8C3D" opacity="0.2"/>
</svg>
